<?xml version="1.0" standalone="no"?>
<!DOCTYPE svg PUBLIC "-//W3C//DTD SVG 20010904//EN"
 "http://www.w3.org/TR/2001/REC-SVG-20010904/DTD/svg10.dtd">
<svg version="1.0" xmlns="http://www.w3.org/2000/svg"
 width="1024.000000pt" height="1024.000000pt" viewBox="0 0 1024.000000 1024.000000"
 preserveAspectRatio="xMidYMid meet">
<metadata>
Created by potrace 1.11, written by Peter Selinger 2001-2013
</metadata>
<g transform="translate(0.000000,1024.000000) scale(0.100000,-0.100000)"
fill="#000000" stroke="none">
<path d="M3288 10226 c-56 -20 -134 -90 -233 -208 -72 -86 -77 -106 -45 -174
27 -55 164 -185 265 -252 93 -61 160 -84 333 -113 69 -12 149 -29 176 -39 l51
-18 -40 -6 c-357 -62 -951 -259 -1277 -422 -141 -71 -364 -238 -455 -342 -124
-141 -227 -237 -338 -316 -141 -101 -270 -210 -365 -308 -67 -68 -84 -80 -157
-108 -64 -25 -83 -36 -83 -51 0 -23 7 -23 150 -5 58 7 106 13 107 12 0 -1 -75
-71 -169 -156 -193 -176 -266 -256 -351 -385 -177 -268 -290 -604 -357 -1056
-17 -113 -39 -239 -50 -280 -26 -95 -125 -295 -234 -476 -111 -183 -109 -178
-62 -169 33 6 37 5 32 -11 -44 -139 -70 -567 -47 -748 25 -193 116 -568 202
-836 39 -122 112 -278 286 -609 84 -159 183 -393 243 -575 24 -71 60 -170 81
-218 21 -49 45 -125 53 -171 66 -351 282 -630 707 -914 119 -80 369 -224 564
-327 171 -90 340 -189 391 -228 64 -50 146 -150 198 -240 30 -53 63 -87 83
-87 11 0 13 10 7 45 -6 42 -5 45 17 45 15 0 40 -18 69 -48 49 -52 100 -79 216
-117 113 -37 227 -49 404 -41 636 26 637 26 924 -116 76 -37 141 -66 143 -64
8 8 -51 86 -162 216 -58 69 -161 202 -228 295 -148 207 -282 375 -416 519 -56
60 -101 112 -101 115 0 4 75 16 168 26 277 33 442 26 801 -31 41 -7 43 -6 33
13 -23 42 -618 630 -677 668 -33 22 -135 78 -227 126 l-168 87 -127 129 c-71
72 -180 174 -243 228 l-115 97 105 -6 c58 -4 218 -16 356 -27 520 -40 1182
-44 1584 -10 567 49 788 89 1285 235 83 24 163 46 178 50 l28 7 -16 -31 c-27
-53 -30 -118 -7 -177 l21 -51 -67 -50 c-37 -28 -121 -101 -187 -162 -66 -61
-142 -125 -170 -143 -27 -19 -89 -59 -137 -91 -49 -32 -90 -62 -94 -67 -7 -12
40 -29 82 -29 30 0 35 -3 32 -20 -2 -16 -31 -33 -116 -70 -214 -93 -389 -198
-496 -299 -32 -31 -93 -99 -135 -151 -112 -141 -168 -197 -251 -253 -80 -53
-120 -86 -120 -98 0 -4 19 -2 43 3 68 16 363 2 562 -25 99 -14 221 -29 270
-32 169 -13 458 23 570 69 35 15 35 15 22 -5 -40 -56 -416 -401 -582 -534
-187 -149 -445 -345 -578 -439 -64 -46 -68 -50 -65 -84 l3 -35 140 2 c110 2
179 -4 320 -25 249 -38 395 -38 570 0 250 54 506 155 687 271 179 116 360 287
503 476 47 63 85 103 96 104 15 1 18 -3 13 -19 -15 -49 -38 -96 -100 -203 -37
-63 -64 -116 -61 -120 8 -8 113 51 287 162 82 52 209 124 282 159 172 83 350
212 620 449 305 268 605 734 684 1062 13 55 34 131 45 168 23 75 157 378 322
724 210 440 286 675 318 988 27 263 -12 635 -95 910 -9 27 -14 51 -12 53 2 2
22 -6 45 -18 23 -11 41 -19 41 -18 0 2 -45 138 -100 303 -118 352 -173 542
-236 824 -49 218 -125 496 -169 621 -34 94 -160 347 -222 443 -146 228 -307
394 -476 491 l-75 42 100 23 101 23 -34 20 c-115 70 -249 195 -454 426 l-118
133 32 142 c17 78 65 315 106 527 41 212 81 410 90 440 23 84 20 107 -15 125
-46 24 -195 42 -214 26 -18 -15 -31 -69 -146 -615 -50 -237 -92 -432 -94 -434
-6 -5 -53 25 -108 71 -111 90 -456 274 -613 326 -157 52 -414 97 -662 117 -46
4 -83 10 -83 13 1 25 272 275 388 359 37 26 128 72 214 108 82 35 165 74 183
88 70 53 99 126 52 126 -13 0 -96 18 -185 40 -219 55 -296 66 -350 51 -48 -14
-83 -46 -216 -199 -80 -93 -167 -170 -396 -353 -32 -25 -106 -88 -165 -140
-138 -123 -226 -180 -326 -213 -80 -26 -238 -52 -262 -43 -7 3 -19 28 -26 56
-16 63 -79 160 -131 201 -75 59 -145 84 -254 88 -130 6 -192 -9 -256 -59 -27
-21 -54 -39 -60 -39 -7 0 -49 36 -96 81 -65 62 -102 89 -166 119 -172 80 -450
160 -736 210 -119 22 -168 46 -256 129 -53 51 -221 251 -275 329 -25 35 -38
38 -93 18z m79 -120 c46 -70 162 -203 252 -289 72 -68 87 -78 159 -101 44 -14
158 -41 254 -61 166 -34 498 -135 583 -178 119 -59 246 -159 245 -194 0 -4
-28 -24 -62 -43 -35 -20 -84 -61 -116 -97 -30 -35 -61 -63 -69 -63 -8 0 -72
58 -141 128 -122 123 -132 131 -249 190 -146 74 -337 135 -582 187 -205 43
-203 42 -294 101 -88 57 -123 88 -198 182 -67 83 -67 82 4 159 51 55 156 135
171 130 6 -2 25 -25 43 -51z m3896 -196 c70 -23 127 -44 127 -48 0 -8 -42 -30
-210 -110 -156 -74 -219 -120 -407 -298 -104 -97 -192 -169 -287 -233 -76 -51
-193 -133 -261 -181 -236 -167 -371 -229 -564 -256 -57 -8 -106 -13 -108 -11
-2 2 4 21 13 43 10 21 27 73 38 114 l21 74 81 13 c98 15 225 54 319 98 51 23
102 61 186 137 63 57 147 129 185 160 188 150 377 318 448 399 46 53 99 102
130 120 44 26 58 30 106 25 30 -2 112 -23 183 -46z m1270 -186 c16 -3 27 -12
27 -22 0 -9 -27 -156 -61 -327 -33 -170 -76 -393 -95 -495 -19 -102 -62 -304
-94 -450 -32 -146 -79 -371 -105 -500 -80 -402 -163 -792 -241 -1124 -41 -176
-95 -410 -119 -520 -24 -111 -82 -368 -129 -572 -47 -204 -151 -674 -231
-1045 -158 -734 -223 -1030 -291 -1329 -24 -107 -53 -236 -65 -287 l-20 -92
-30 11 c-17 6 -55 8 -85 5 -30 -3 -54 -2 -54 2 0 28 39 220 85 421 29 129 84
388 120 575 37 187 87 414 111 505 24 91 67 273 95 405 82 390 201 919 355
1585 80 344 181 780 225 970 195 843 357 1580 435 1990 25 129 50 252 55 273
11 43 7 42 112 21z m-4382 -366 c130 -65 388 -276 424 -348 7 -14 15 -55 17
-91 l6 -67 -102 -60 c-621 -368 -1065 -513 -1806 -592 -325 -34 -365 -39 -650
-90 -271 -49 -483 -80 -541 -80 -29 0 -27 2 41 66 38 36 135 115 214 175 106
79 198 162 348 312 226 226 292 277 514 390 174 88 308 142 576 232 368 123
674 196 809 192 64 -2 86 -7 150 -39z m1186 -10 c105 -39 209 -171 220 -281
12 -121 -48 -266 -157 -377 -78 -80 -99 -86 -265 -83 -268 4 -473 128 -501
301 -9 56 41 164 103 223 29 28 43 37 39 24 -24 -63 -30 -127 -19 -191 7 -37
16 -71 21 -76 6 -6 25 37 52 119 55 165 88 229 143 280 74 68 107 80 229 82
57 1 93 -5 135 -21z m1683 -198 c326 -65 536 -139 760 -266 97 -56 334 -216
345 -233 3 -6 -82 -435 -103 -516 -5 -22 -13 -51 -16 -65 l-5 -25 -288 1
c-285 2 -474 15 -718 50 -275 40 -427 87 -590 185 -66 39 -156 87 -200 106
-99 43 -299 183 -353 248 -14 17 -30 19 -51 6 -12 -8 -8 -19 20 -66 49 -81
167 -190 288 -265 111 -69 123 -82 328 -334 52 -66 153 -179 222 -253 196
-209 251 -291 348 -517 l33 -78 -112 108 c-174 166 -218 196 -558 374 -320
167 -428 250 -623 473 -220 252 -260 311 -307 449 l-27 79 49 51 49 50 112 3
c93 2 128 8 209 34 137 45 187 68 349 167 161 97 298 191 346 236 17 17 46 34
65 39 61 15 229 0 428 -41z m-2342 -429 c65 -66 160 -119 274 -152 103 -30
322 -39 369 -15 42 21 50 12 68 -71 32 -149 170 -342 436 -609 143 -145 201
-184 525 -356 366 -194 486 -282 644 -471 l91 -109 2 39 c2 21 5 71 9 111 l6
72 38 -21 c22 -12 53 -36 69 -53 29 -31 194 -267 189 -271 -21 -15 -478 -115
-748 -164 -569 -103 -1041 -151 -1481 -151 -267 0 -404 11 -842 65 -489 61
-576 63 -1337 35 -135 -5 -246 -7 -248 -5 -7 7 65 116 136 204 110 140 199
339 247 556 22 100 46 168 55 158 13 -15 60 -255 69 -353 5 -52 6 -128 4 -167
-5 -67 -4 -73 14 -73 15 0 25 20 52 103 50 152 140 322 213 402 93 102 216
191 377 275 204 106 282 160 387 264 97 98 167 196 207 291 56 134 73 322 38
423 l-18 53 41 24 c23 14 44 25 49 25 4 0 33 -26 65 -59z m-207 -83 c16 -61 6
-209 -21 -288 -49 -149 -171 -311 -299 -399 -113 -77 -240 -153 -383 -231
-100 -53 -130 -76 -200 -149 -46 -47 -101 -106 -122 -131 l-38 -45 7 60 c13
109 220 596 300 705 19 26 47 74 61 106 41 94 67 121 132 140 70 20 137 54
357 178 93 53 175 96 182 96 7 0 17 -19 24 -42z m4072 -350 c77 -91 125 -136
218 -205 l118 -88 -117 -3 c-64 -1 -139 2 -167 8 -27 6 -105 14 -172 17 -68 3
-123 9 -123 12 0 4 11 45 24 91 14 47 36 136 50 198 14 63 29 118 32 124 4 6
13 0 23 -14 9 -14 60 -77 114 -140z m-4803 42 c0 -15 -51 -115 -110 -214 -138
-234 -183 -348 -266 -675 -56 -223 -50 -228 -89 64 -49 377 -52 547 -10 652
19 49 24 51 260 129 158 52 215 64 215 44z m2712 -181 c113 -46 222 -77 358
-99 139 -24 180 -41 191 -84 5 -16 23 -59 42 -95 55 -105 71 -165 70 -261 0
-48 -8 -109 -17 -140 -15 -48 -22 -87 -43 -229 l-5 -35 -25 60 c-14 32 -38 92
-53 133 -37 94 -75 150 -192 281 -51 58 -160 186 -243 283 -82 98 -166 197
-185 220 l-35 41 32 -22 c18 -13 65 -36 105 -53z m-3403 -16 c-22 -57 -70
-131 -156 -236 -182 -224 -258 -350 -441 -732 -94 -196 -211 -490 -199 -502 2
-2 14 0 27 5 17 6 40 48 94 168 175 388 387 771 530 957 60 78 133 177 162
220 62 92 57 100 75 -134 l11 -156 -41 -132 c-23 -72 -52 -173 -65 -224 -31
-120 -89 -276 -134 -357 -19 -36 -77 -126 -127 -200 -50 -74 -101 -152 -113
-172 -21 -38 -22 -38 -84 -38 -35 0 -94 -5 -133 -10 -38 -6 -132 -15 -208 -20
-176 -12 -203 -23 -233 -100 -23 -58 -70 -256 -125 -523 -17 -86 -34 -156 -35
-154 -2 2 -15 59 -29 127 -22 109 -25 147 -25 344 0 492 86 866 297 1286 103
206 266 466 310 496 33 22 67 28 298 54 55 6 154 22 220 34 66 13 123 24 127
25 4 0 3 -11 -3 -26z m-755 -85 c-92 -156 -163 -232 -529 -565 -229 -209 -431
-409 -533 -528 -95 -111 -166 -216 -290 -425 -175 -297 -217 -364 -314 -502
-104 -148 -128 -171 -98 -94 12 33 66 298 81 401 30 212 126 529 222 741 128
279 249 448 423 594 126 105 222 199 247 243 24 43 22 42 172 57 165 17 379
48 480 69 109 24 149 26 139 9z m5306 -63 c171 0 264 -4 263 -10 -1 -5 -7 -72
-14 -148 -10 -111 -10 -160 0 -255 l13 -117 -45 -195 c-25 -107 -48 -222 -52
-254 -10 -82 -38 -110 -121 -119 -33 -3 -80 -15 -105 -26 -24 -12 -51 -21 -60
-21 -32 0 -68 42 -118 139 -46 90 -59 107 -141 177 -59 51 -89 83 -86 93 3 9
19 86 37 171 24 121 30 170 26 225 -5 71 -44 210 -77 275 -10 19 -21 46 -25
59 l-7 24 123 -9 c68 -5 243 -9 389 -9z m378 -20 c1 -1 -13 -64 -32 -141 l-34
-139 -1 91 c-1 50 4 116 10 148 11 51 14 56 33 50 12 -4 22 -7 24 -9z m615
-39 c229 -44 430 -187 597 -424 81 -115 209 -323 260 -422 63 -124 137 -374
285 -955 76 -298 125 -455 204 -652 l21 -53 -123 119 c-67 66 -149 141 -181
168 -32 26 -98 81 -145 121 -88 75 -170 122 -451 264 -176 88 -221 120 -401
283 -152 137 -297 290 -377 397 -53 72 -186 310 -178 319 4 4 40 171 132 613
25 121 47 224 50 228 9 13 227 9 307 -6z m-6637 -455 c-67 -147 -105 -258
-156 -456 -39 -146 -80 -370 -80 -430 0 -25 -26 -55 -167 -195 -244 -240 -336
-310 -624 -472 -134 -76 -275 -152 -314 -169 -60 -27 -200 -79 -213 -79 -2 0
40 48 95 108 226 244 268 303 458 632 141 246 232 381 329 492 108 124 713
703 724 693 1 -1 -22 -57 -52 -124z m6319 -815 c47 -61 97 -125 111 -142 l24
-31 -76 -129 c-43 -71 -104 -184 -137 -252 l-60 -123 -34 33 c-45 42 -112 129
-148 191 -22 39 -26 55 -21 87 7 42 143 616 151 639 4 9 25 -20 55 -74 28 -48
88 -138 135 -199z m-648 137 c-3 -10 -31 -87 -64 -170 l-58 -153 -125 -49
c-423 -166 -1321 -354 -1923 -402 -190 -15 -721 -7 -957 15 -96 9 -344 34
-550 56 -206 22 -401 43 -432 46 l-57 6 6 31 c3 18 11 58 18 90 10 44 10 60 1
63 -6 2 -86 3 -176 2 l-164 -3 -15 -85 -16 -85 -95 -2 c-298 -6 -701 -37 -896
-69 l-100 -16 -78 -335 c-43 -184 -75 -337 -72 -340 7 -8 257 12 486 37 91 10
166 17 168 16 3 -3 -25 -150 -33 -178 -6 -17 9 -18 399 -18 377 0 405 1 410
18 3 9 12 60 22 112 9 52 18 96 19 98 3 3 207 -14 775 -68 589 -56 726 -63
1067 -57 302 5 395 13 742 63 364 53 703 133 1220 290 63 19 115 33 117 32 1
-2 -25 -103 -59 -226 -33 -122 -64 -218 -67 -211 -5 7 -46 -5 -131 -39 -112
-44 -434 -150 -614 -200 -388 -110 -964 -182 -1452 -182 -140 0 -183 3 -183
13 0 11 13 103 25 175 l6 32 -175 0 -175 0 -6 -32 c-3 -18 -10 -64 -16 -103
-5 -38 -11 -70 -12 -71 -3 -4 -425 24 -772 50 -699 54 -1012 44 -1595 -48
-118 -19 -235 -37 -261 -41 l-45 -6 -34 -124 c-62 -232 -40 -121 39 196 88
351 189 782 281 1209 36 166 70 298 81 317 22 36 16 35 289 58 524 44 638 49
1065 50 455 0 505 -3 895 -55 419 -56 539 -65 900 -64 545 2 943 45 1505 165
178 38 763 177 830 198 44 14 48 13 42 -6z m83 -74 c-6 -19 -67 -286 -135
-595 -68 -308 -174 -774 -235 -1035 -174 -742 -272 -1195 -329 -1524 -29 -165
-29 -165 -48 -165 -14 0 -15 13 -9 113 29 477 87 957 157 1297 69 335 281
1087 434 1540 33 100 166 413 172 407 1 -2 -2 -19 -7 -38z m-5981 -510 c12
-219 34 -354 77 -467 14 -37 25 -77 25 -89 0 -12 -18 -97 -40 -190 -22 -92
-65 -276 -95 -408 -130 -556 -187 -757 -385 -1350 -227 -681 -261 -802 -302
-1088 -7 -49 -16 -82 -19 -75 -17 32 -42 211 -42 303 0 126 11 190 132 740
179 814 231 1145 246 1575 10 276 -19 574 -74 772 l-19 68 78 60 c42 33 149
134 235 225 130 136 160 162 165 147 4 -10 12 -110 18 -223z m6826 139 c112
-99 273 -227 338 -266 31 -19 107 -56 169 -83 200 -88 270 -123 327 -165 60
-44 382 -347 427 -402 36 -44 105 -237 137 -382 25 -110 54 -322 77 -552 9
-88 8 -125 -5 -204 -64 -400 -182 -755 -382 -1154 -131 -263 -132 -264 -126
-174 4 53 -2 109 -25 229 -17 88 -41 228 -52 310 -29 206 -61 350 -121 550
-27 94 -72 258 -99 365 -27 107 -67 263 -90 345 -75 277 -83 339 -84 620 -1
138 3 322 7 411 l9 160 -42 13 c-23 7 -44 11 -46 8 -15 -14 -26 -309 -21 -557
6 -299 21 -452 56 -580 37 -132 32 -155 -70 -287 -27 -36 -69 -107 -93 -157
-51 -110 -156 -234 -280 -332 l-81 -64 -3 137 c-3 174 9 263 108 778 88 458
119 587 180 755 97 265 100 274 100 336 0 33 -3 63 -6 66 -3 3 -22 -1 -43 -9
l-38 -15 -66 -211 c-110 -353 -213 -792 -262 -1122 -30 -198 -33 -209 -94
-314 -26 -47 -89 -167 -140 -266 -61 -121 -112 -207 -156 -262 -100 -127 -110
-114 -64 83 43 185 44 349 5 638 -32 240 -34 399 -7 581 50 340 153 650 337
1018 75 149 121 227 133 227 4 0 43 -32 86 -72z m-5226 -535 c-43 -236 -81
-443 -84 -460 l-6 -33 -324 0 c-294 0 -325 2 -325 16 0 9 5 45 12 80 l11 64
231 2 231 3 17 95 c9 52 17 107 17 123 l1 27 -121 0 -121 0 6 33 c3 17 8 51
12 75 l7 42 123 0 123 0 10 53 c5 28 20 102 31 162 12 61 24 118 26 128 5 15
19 17 103 17 l98 0 -78 -427z m4615 290 c22 -38 67 -97 102 -133 l62 -65 -39
-140 c-75 -266 -120 -450 -136 -550 -21 -142 -19 -389 6 -618 25 -225 27 -448
6 -573 -32 -184 -74 -334 -110 -393 -19 -31 -39 -77 -44 -103 -12 -66 -30 -90
-119 -155 -82 -60 -342 -298 -429 -392 -42 -45 -53 -52 -53 -35 0 32 55 299
105 504 44 183 190 847 285 1300 82 390 314 1420 320 1420 3 0 23 -30 44 -67z
m-6744 -393 c61 -418 43 -973 -49 -1450 -34 -176 -106 -513 -151 -705 -53
-223 -69 -310 -87 -462 -19 -159 -22 -158 -43 7 -7 47 -31 216 -56 375 -24
160 -52 364 -64 455 -26 217 -60 641 -60 755 0 92 34 610 46 700 l6 50 -20
-20 c-15 -14 -28 -55 -45 -140 -47 -226 -52 -289 -51 -670 0 -303 4 -391 22
-560 26 -233 66 -485 121 -768 22 -111 43 -224 46 -252 l6 -50 -26 45 c-45 76
-204 397 -272 550 -91 206 -134 340 -197 625 -82 373 -91 442 -91 765 0 383
26 518 112 574 21 14 211 112 423 218 l385 193 12 -50 c7 -27 22 -111 33 -185z
m3498 -722 c-3 -18 -34 -228 -69 -465 l-63 -433 -102 0 c-92 0 -102 2 -98 18
2 9 31 204 64 432 33 228 63 430 66 448 l6 32 100 0 101 0 -5 -32z m4416 -527
c41 -118 156 -549 156 -583 0 -7 -28 -35 -62 -63 -34 -27 -117 -103 -185 -167
-68 -65 -126 -118 -131 -118 -9 0 -17 274 -17 560 1 236 4 252 66 356 31 52
118 159 124 152 2 -2 24 -63 49 -137z m-7460 95 c-3 -15 -8 -25 -11 -23 -2 3
-1 17 3 31 3 15 8 25 11 23 2 -3 1 -17 -3 -31z m5331 2 c-7 -35 -33 -228 -50
-372 -8 -71 -16 -130 -17 -132 -25 -25 -539 -167 -553 -153 -1 2 2 41 9 87 11
72 10 82 -4 82 -50 0 -326 -24 -332 -29 -4 -3 -12 -54 -19 -113 l-12 -107 -49
-10 c-27 -6 -58 -11 -69 -11 -21 0 -21 -9 1 149 6 40 8 76 5 79 -2 3 -62 0
-132 -7 -71 -6 -147 -11 -170 -11 -48 0 -45 8 -64 -162 -10 -95 -14 -107 -33
-112 -57 -14 -417 -47 -624 -57 -264 -12 -556 -2 -874 31 -536 56 -988 75
-1538 66 -571 -10 -732 -27 -924 -97 -78 -28 -140 -37 -150 -21 -3 5 30 125
73 268 43 142 100 334 126 426 27 92 50 166 52 164 3 -2 -16 -77 -41 -167 -25
-90 -44 -165 -41 -167 2 -3 66 7 142 22 184 35 301 53 501 77 220 27 754 36
1151 20 343 -15 948 -55 957 -64 6 -5 -12 -160 -22 -199 -5 -17 8 -18 170 -18
l174 0 6 28 c6 30 26 154 26 163 0 3 147 6 328 6 420 -1 612 20 1032 109 266
57 931 231 949 250 12 11 21 2 16 -18z m1392 -382 c-3 -7 -1 -60 4 -117 11
-133 5 -171 -29 -187 -15 -7 -79 -56 -142 -109 -164 -137 -226 -174 -245 -143
-3 5 33 58 80 117 106 132 215 293 261 384 26 52 39 69 55 69 14 0 19 -5 16
-14z m401 -89 c-6 -77 -31 -126 -106 -214 -32 -38 -93 -115 -137 -172 -114
-150 -276 -331 -396 -445 -105 -99 -350 -304 -489 -409 -41 -31 -102 -77 -135
-103 -33 -25 -98 -72 -145 -102 -88 -58 -317 -232 -304 -232 4 0 67 31 140 69
157 82 327 192 549 358 402 299 671 558 902 868 57 77 117 156 132 175 l29 35
8 -70 c11 -88 12 -313 1 -383 l-8 -53 28 7 c52 12 108 52 215 153 59 55 135
121 169 146 74 54 65 64 103 -106 35 -160 52 -287 76 -569 24 -273 22 -298
-30 -511 -125 -506 -371 -883 -840 -1287 -167 -144 -230 -187 -395 -270 -66
-33 -181 -98 -255 -144 -74 -47 -145 -90 -158 -97 l-22 -12 24 53 c67 149 119
249 155 303 52 76 84 174 127 400 95 488 112 554 189 710 52 107 228 397 352
581 101 149 211 282 398 476 170 176 234 261 221 294 -4 9 -21 14 -53 14 l-48
0 -66 -87 c-37 -49 -128 -158 -204 -243 -215 -242 -324 -384 -390 -505 -34
-63 -79 -129 -105 -155 -135 -134 -639 -331 -1015 -395 -151 -26 -411 -37
-693 -29 l-264 7 60 36 c33 20 137 104 232 186 237 206 211 189 252 165 56
-32 135 -44 204 -30 48 10 66 20 99 54 60 62 79 108 79 192 -1 54 -6 80 -22
107 l-20 36 28 43 c32 50 111 127 260 255 206 176 414 326 675 487 145 89 152
92 181 80 19 -8 36 -25 44 -44 10 -25 18 -30 39 -28 25 3 27 7 39 92 15 105
26 125 112 203 36 32 90 84 119 116 30 31 56 57 59 57 3 0 2 -28 0 -63z
m-2478 -104 c-2 -37 -108 -915 -112 -918 -5 -6 -191 -26 -195 -21 -2 2 6 81
16 177 11 95 19 174 17 176 -5 5 -262 -24 -273 -30 -6 -4 -13 -39 -16 -79 -4
-40 -12 -119 -18 -174 l-12 -101 -98 -9 c-86 -8 -99 -7 -99 6 0 8 23 218 52
467 l53 451 65 6 c36 4 82 9 102 12 37 6 38 5 33 -23 -9 -46 -45 -376 -43
-379 4 -3 272 27 277 31 3 3 49 362 51 397 0 4 21 9 48 11 92 7 152 7 152 0z
m-4946 -427 c-3 -15 -8 -25 -11 -23 -2 3 -1 17 3 31 3 15 8 25 11 23 2 -3 1
-17 -3 -31z m-104 -327 c-33 -107 -58 -199 -55 -206 9 -26 137 -15 313 27 342
80 468 95 957 111 456 14 839 -1 1395 -56 475 -47 531 -50 885 -49 301 0 373
3 517 22 92 12 170 22 173 22 2 0 2 -41 -2 -91 l-6 -91 49 6 c27 3 105 11 174
17 69 6 126 12 127 13 0 0 6 44 13 96 6 52 14 98 18 101 4 4 33 11 66 17 l58
9 -5 -41 c-14 -101 -19 -176 -12 -176 57 0 341 34 346 42 3 5 11 60 18 121 6
61 14 114 18 117 5 4 60 17 123 29 63 13 191 40 285 62 93 21 171 39 173 39 1
0 1 -91 0 -202 l-3 -202 -50 -14 c-27 -8 -129 -38 -225 -68 -564 -175 -1082
-248 -1830 -261 -377 -6 -653 3 -1089 38 -678 53 -1373 42 -1991 -31 -183 -21
-414 -60 -532 -89 -61 -14 -78 -15 -78 -5 0 20 38 272 50 334 12 62 172 562
177 556 2 -2 -23 -91 -57 -197z m5850 -335 c58 -23 85 -66 85 -134 -1 -108
-72 -180 -179 -180 -80 0 -138 44 -154 117 -12 53 1 119 31 156 42 52 142 71
217 41z m-3973 -282 c50 -7 63 -15 235 -159 101 -83 197 -166 213 -184 l30
-32 -25 6 c-106 25 -232 40 -340 40 -108 0 -147 -5 -287 -36 -209 -48 -335
-61 -498 -54 -276 13 -470 72 -660 200 -83 56 -177 139 -168 148 9 8 270 29
683 54 140 8 278 17 305 18 96 6 460 5 512 -1z m-1558 -111 c70 -70 224 -177
329 -230 74 -37 141 -61 242 -86 196 -49 183 -41 235 -145 25 -49 63 -119 85
-155 147 -240 199 -399 270 -815 22 -135 43 -254 47 -265 9 -33 -49 48 -95
132 -93 170 -406 545 -727 873 -116 118 -228 235 -249 260 -22 25 -100 107
-173 184 -127 130 -136 138 -159 127 l-24 -11 47 -62 c27 -35 80 -97 118 -138
39 -41 118 -127 175 -190 58 -63 177 -191 265 -285 88 -94 214 -236 281 -315
67 -80 172 -207 235 -282 63 -75 124 -155 137 -178 l23 -41 -208 105 c-582
294 -912 534 -1114 811 -59 80 -156 261 -190 354 -24 67 -32 108 -36 188 l-6
101 39 11 c41 12 332 77 374 84 14 2 28 5 33 6 4 0 24 -16 46 -38z m6655 -113
c-4 -13 -44 -97 -89 -188 -45 -91 -84 -175 -87 -187 -5 -20 -13 -23 -60 -23
-92 0 -165 -27 -398 -147 -353 -182 -533 -290 -645 -388 -135 -117 -207 -153
-410 -205 -205 -51 -303 -64 -460 -57 -129 5 -685 56 -694 63 -3 3 98 110 269
283 150 151 329 269 555 365 61 26 152 68 204 94 l93 47 302 1 c259 1 319 4
431 23 353 59 567 129 880 289 55 28 104 51 108 51 5 1 5 -9 1 -21z m-4801
-199 c149 -27 252 -65 423 -153 236 -122 381 -229 544 -402 36 -38 83 -82 105
-97 56 -40 36 -33 -280 93 -381 152 -431 166 -819 240 -133 25 -258 56 -359
89 -186 61 -247 66 -247 20 0 -14 7 -19 28 -19 16 0 98 -25 183 -55 85 -30
190 -62 234 -71 242 -47 341 -68 445 -94 137 -35 381 -119 540 -188 63 -27
156 -62 205 -77 118 -36 184 -67 220 -106 l30 -32 -50 7 c-216 28 -508 27
-823 -4 -261 -25 -440 7 -644 118 -40 21 -118 64 -174 93 -55 30 -120 71 -145
90 -24 20 -75 58 -114 84 -178 124 -238 188 -303 325 -17 35 -30 65 -29 65 1
1 79 7 172 13 94 6 251 25 350 42 303 53 319 54 508 19z m4577 -269 c0 -48
-21 -132 -46 -181 -12 -25 -56 -82 -96 -125 -40 -43 -120 -132 -176 -196 -325
-369 -707 -670 -1123 -883 -192 -98 -421 -193 -754 -314 -51 -18 -264 -54
-273 -46 -2 2 12 13 30 26 71 49 550 418 669 516 70 56 183 161 250 232 68 71
160 159 204 196 44 38 116 103 160 145 186 180 269 236 587 402 303 159 377
195 468 229 95 36 100 36 100 -1z m-5198 -310 c91 -77 286 -197 384 -237 44
-18 142 -49 218 -68 110 -28 156 -35 234 -35 l97 0 70 -68 c93 -89 273 -296
384 -440 49 -65 125 -162 169 -217 44 -55 79 -101 78 -103 -2 -1 -59 35 -128
81 -160 107 -282 169 -501 256 -97 38 -195 81 -219 94 -24 14 -104 56 -179 94
-75 38 -183 100 -240 138 -116 76 -260 158 -266 151 -3 -2 3 -18 11 -35 28
-53 252 -200 556 -364 47 -25 159 -75 250 -112 213 -85 586 -270 678 -336 40
-29 70 -54 68 -57 -3 -2 -26 3 -53 12 -146 48 -332 62 -623 47 -241 -13 -393
-5 -518 29 -105 29 -127 43 -213 129 -42 42 -101 99 -132 126 -69 62 -81 99
-102 315 -24 258 -76 465 -170 683 l-16 39 48 -33 c26 -18 78 -58 115 -89z
m5124 -146 c-19 -109 -58 -237 -84 -276 -10 -15 -46 -53 -80 -84 -35 -31 -77
-77 -94 -103 -107 -157 -344 -406 -488 -513 -239 -176 -585 -328 -850 -374
-141 -24 -307 -24 -443 1 -59 11 -106 23 -105 27 2 5 82 35 179 67 434 147
697 273 1004 482 282 192 548 421 712 614 170 199 258 290 261 271 2 -10 -4
-60 -12 -112z"/>
<path d="M3910 9079 c-502 -119 -1151 -351 -1371 -491 -30 -19 -125 -73 -211
-122 -86 -48 -192 -111 -235 -141 -43 -30 -107 -70 -143 -88 -36 -19 -76 -44
-90 -56 l-25 -20 30 -1 c39 0 109 33 215 102 85 56 504 295 610 348 69 35 135
62 375 154 239 92 329 121 590 191 452 120 474 128 475 158 0 14 -55 5 -220
-34z"/>
<path d="M5137 9226 c-168 -46 -232 -255 -118 -387 45 -54 100 -79 174 -79 69
0 120 19 165 63 71 67 94 151 68 241 -36 124 -165 196 -289 162z m144 -62 c40
-20 87 -79 99 -125 40 -149 -114 -283 -258 -224 -49 21 -81 52 -103 100 -25
55 -24 102 6 161 49 98 161 137 256 88z"/>
<path d="M5100 9103 c0 -21 6 -49 13 -63 11 -22 11 -29 -6 -51 -14 -19 -17
-35 -12 -57 10 -49 38 -66 116 -70 l69 -4 0 141 0 141 -25 0 c-24 0 -25 -3
-25 -56 l0 -55 -32 3 c-29 3 -33 7 -36 33 -6 63 -11 75 -37 75 -22 0 -25 -4
-25 -37z m130 -158 c0 -43 -1 -45 -30 -45 -28 0 -30 2 -30 39 0 39 8 49 43 50
14 1 17 -8 17 -44z"/>
<path d="M6210 8820 c-80 -4 -153 -8 -162 -9 -10 0 -18 -7 -18 -15 0 -10 59
-14 308 -20 676 -15 910 -47 1349 -182 160 -49 166 -50 161 -28 -2 11 -44 31
-128 60 -231 81 -487 137 -765 168 -132 16 -505 37 -570 34 -16 -1 -95 -5
-175 -8z"/>
<path d="M8330 7601 c0 -15 76 -74 162 -125 87 -53 252 -205 330 -304 28 -37
101 -129 161 -204 60 -76 185 -258 279 -405 166 -261 347 -525 369 -538 13 -9
27 4 13 13 -11 8 -140 219 -199 327 -21 38 -65 111 -97 162 -32 50 -91 150
-132 220 -69 121 -202 298 -352 469 -82 92 -201 194 -319 272 -55 36 -119 78
-143 94 -43 28 -72 36 -72 19z"/>
<path d="M1440 6073 c-1 -5 -5 -208 -10 -453 -6 -286 -15 -506 -26 -615 -22
-216 -23 -250 -5 -250 23 0 28 22 50 195 33 255 41 407 41 776 0 303 -2 343
-16 348 -21 8 -34 8 -34 -1z"/>
<path d="M8507 6088 c-19 -15 -64 -133 -101 -265 -54 -192 -163 -736 -190
-945 -20 -154 -38 -401 -34 -468 l3 -55 14 45 c21 70 39 196 61 420 23 229 38
332 76 500 27 118 122 475 176 658 30 105 29 135 -5 110z"/>
<path d="M9361 5672 c-8 -14 11 -83 79 -288 111 -340 112 -341 160 -640 66
-413 71 -560 33 -986 -5 -58 -4 -68 10 -68 18 0 16 -9 48 290 30 285 25 372
-45 710 -30 146 -66 333 -81 415 -19 105 -42 190 -77 284 -44 120 -61 175 -82
274 -7 31 -31 36 -45 9z"/>
<path d="M9195 3373 c-17 -153 -49 -369 -70 -474 -30 -148 -63 -245 -125 -369
-28 -55 -63 -133 -80 -174 -16 -41 -60 -118 -99 -173 -38 -55 -92 -145 -119
-199 -86 -170 -390 -584 -649 -882 -34 -39 -67 -81 -73 -92 -21 -39 -1 -34 38
9 20 23 76 84 123 134 178 192 547 691 599 811 11 26 74 138 141 248 164 271
222 399 274 608 36 140 85 454 85 537 0 65 -2 73 -19 73 -16 0 -21 -10 -26
-57z"/>
<path d="M7395 1954 c-302 -132 -459 -187 -900 -313 -154 -43 -323 -93 -375
-110 -52 -16 -124 -37 -160 -46 -190 -47 -280 -78 -317 -110 -21 -18 -35 -36
-31 -41 4 -4 36 7 70 24 38 19 136 49 248 76 102 25 224 56 270 69 47 14 146
37 220 52 149 30 261 67 710 239 357 136 397 154 416 180 15 22 19 46 7 46 -5
0 -75 -30 -158 -66z"/>
</g>
</svg>
